<svg xmlns="http://www.w3.org/2000/svg" viewBox="0 0 48 48" width="240px" height="240px"><path d="M44,18H4v20c0,1.657,1.343,3,3,3h34c1.657,0,3-1.343,3-3V18z"></path><path fill="#fff" d="M41,38H7c-1.105,0-2-0.895-2-2V8h38v28C43,37.105,42.105,38,41,38z"></path><path d="M41,39H7c-1.654,0-3-1.346-3-3V8c0-0.553,0.447-1,1-1h38c0.553,0,1,0.447,1,1v28C44,37.654,42.654,39,41,39z M6,9v27 c0,0.552,0.448,1,1,1h34c0.552,0,1-0.448,1-1V9H6z"></path><rect width="38" height="2" x="5" y="13"></rect><circle cx="13" cy="11" r="1"></circle><circle cx="9" cy="11" r="1"></circle><path d="M37,20h-9c-0.552,0-1,0.448-1,1s0.448,1,1,1h9c0.552,0,1-0.448,1-1S37.552,20,37,20z"></path><path d="M37,25h-9c-0.552,0-1,0.448-1,1s0.448,1,1,1h9c0.552,0,1-0.448,1-1S37.552,25,37,25z"></path><path d="M34,30h-6c-0.552,0-1,0.448-1,1s0.448,1,1,1h6c0.552,0,1-0.448,1-1S34.552,30,34,30z"></path><path d="M23,19H10v13c0,0.552,0.448,1,1,1h11c0.552,0,1-0.448,1-1V19z"></path></svg>